<?xml version="1.0" encoding="UTF-8"?>
<svg version="1.1" xmlns="http://www.w3.org/2000/svg" width="1024" height="1024">
<path d="M0 0 C337.92 0 675.84 0 1024 0 C1024 337.92 1024 675.84 1024 1024 C686.08 1024 348.16 1024 0 1024 C0 686.08 0 348.16 0 0 Z " fill="#47357D" transform="translate(0,0)"/>
<path d="M0 0 C2.73707579 2.73707579 2.81085258 5.09339938 3.625 8.875 C8.68743493 30.48379926 18.76063438 51.01443358 33 68 C33.46229004 68.55703613 33.92458008 69.11407227 34.40087891 69.68798828 C37.56231776 73.4922854 40.77389151 77.25046673 44 81 C44.56847656 81.68191406 45.13695312 82.36382812 45.72265625 83.06640625 C55.93889899 95.16390085 67.68895894 106.30102989 80.265625 115.90234375 C82.29445303 117.45874468 84.29941071 119.03331545 86.296875 120.62890625 C106.08079945 136.27356772 127.52005956 149.93571962 149.37011719 162.48779297 C211.0650138 197.96293126 211.0650138 197.96293126 218.0300293 219.13037109 C219.04189799 223.16714905 219.29604702 226.90222454 219.30859375 231.03125 C219.33378413 232.58073244 219.35918164 234.13021151 219.38476562 235.6796875 C219.41323716 238.07713684 219.43729813 240.47452715 219.45629883 242.87207031 C219.67667545 266.2271485 224.80109969 286.15774159 239 305 C239.53343018 305.39123047 240.06686035 305.78246094 240.61645508 306.18554688 C242.8643637 309.13357174 242.42030581 312.48148342 242.40625 316.04296875 C242.41708618 316.84422684 242.42792236 317.64548492 242.43908691 318.47102356 C242.47336286 321.04326229 242.48890879 323.61506329 242.5 326.1875 C242.55458361 338.50796894 243.24027492 349.9576427 246 362 C246.17724609 362.81380127 246.35449219 363.62760254 246.53710938 364.46606445 C249.61459967 377.80672519 255.86220599 389.85164519 262 402 C261.27672019 399.83016058 260.47444906 397.68612264 259.625 395.5625 C253.96359912 380.52093491 253.76993376 365.8231087 254 350 C254.00515625 348.86175781 254.0103125 347.72351563 254.015625 346.55078125 C255.16790287 316.3857927 269.97537435 285.72228305 282.65771484 258.88085938 C285.00047074 253.85275469 287.22286943 248.77305506 289.4375 243.6875 C289.83855957 242.77476318 290.23961914 241.86202637 290.65283203 240.92163086 C300.47868466 218.30805578 306.47858983 190.90950583 297.20166016 166.93701172 C288.56719722 146.83673079 275.34471972 132.94695944 255.02050781 124.76171875 C244.95185628 120.96590039 234.63466285 120.39589887 224 120 C231.7716814 107.99688252 242.62474458 99.65149839 256.71484375 96.3671875 C259.41851379 96.0649937 261.70542776 96.03098701 264.3984375 96.18359375 C275.55694653 96.80369781 283.06759899 95.57546632 292.71484375 89.84765625 C302.60774874 84.2836324 317.78113373 86.30321108 328.4140625 88.89453125 C336.89483268 91.50897347 344.94637332 95.18931493 353.0390625 98.80078125 C374.80249512 108.49987681 397.32294886 117.24572099 421.046875 108.703125 C427.58253613 106.07205271 433.28877894 102.06575038 439 98 C440.485 97.01 440.485 97.01 442 96 C437.0558601 113.44990552 425.406372 127.58985801 410 137 C399.14411445 142.89055154 388.26961908 145.37902451 376 146 C376.26554687 146.71285156 376.53109375 147.42570313 376.8046875 148.16015625 C380.84237952 159.10908024 383.19342795 168.98273483 383.06591797 180.640625 C383.06124512 181.46465317 383.05657227 182.28868134 383.05175781 183.13768005 C383.04131597 184.9147477 383.02867406 186.69180353 383.01403427 188.46884155 C382.99182071 191.29669398 382.97786345 194.12447743 382.96633911 196.95239258 C382.93294271 204.98902746 382.89154386 213.02554965 382.82861328 221.06201172 C382.79059559 225.99255073 382.76782949 230.92297343 382.75430679 235.8536377 C382.74634197 237.71605671 382.73286385 239.57846182 382.71337509 241.4407959 C382.50743422 261.48058707 384.35104391 284.99343344 398.4921875 300.65234375 C399.64969676 301.7804248 400.82301737 302.89225164 402 304 C402 304.66 402 305.32 402 306 C408.73024475 308.96922563 413.39619174 309.39530667 420.3515625 307.06640625 C434.61861797 301.32170692 442.23313236 290.8568951 448.15869141 277.14794922 C453.86648073 262.57536347 454.22875712 247.49061219 454.34179688 232.06445312 C454.50495003 224.47972835 455.1161309 218.58426507 459 212 C459.48082031 211.14148438 459.96164062 210.28296875 460.45703125 209.3984375 C473.64804326 189.70695559 496.91442177 178.57807108 516.97485352 167.09204102 C525.00866561 162.46843874 532.81451026 157.50710602 540.62060547 152.51171875 C542.99846756 151.00097362 545.38910942 149.51295793 547.78515625 148.03125 C581.06358356 127.39910062 614.65649073 101.92959569 639 71 C640.22203125 69.50339844 640.22203125 69.50339844 641.46875 67.9765625 C657.39337128 48.24789726 665.98013172 25.40196607 672 1 C672.66 1 673.32 1 674 1 C682.41848758 12.47623709 688.18919963 25.64078804 692.3125 39.1875 C692.55500488 39.9822876 692.79750977 40.7770752 693.04736328 41.59594727 C696.41658966 53.22394516 697.34944991 64.48029377 697.31567383 76.51708984 C697.31251382 78.86473102 697.3360626 81.21110717 697.36132812 83.55859375 C697.40189968 93.0670275 696.50017899 101.76514476 694 111 C693.77562256 111.83499023 693.55124512 112.66998047 693.32006836 113.53027344 C685.88897834 139.44757262 670.29524497 160.62128017 649 177 C647.52273438 178.16595703 647.52273438 178.16595703 646.015625 179.35546875 C632.50122721 189.92829986 618.32271286 199.56430203 604 209 C602.515 209.99 602.515 209.99 601 211 C601.55872803 210.76128174 602.11745605 210.52256348 602.69311523 210.27661133 C610.01048268 207.24150417 617.478781 204.9563711 625.0625 202.6875 C651.78940379 194.53152096 676.83477834 182.89022963 697.328125 163.3984375 C699 162 699 162 701 162 C701.33 161.01 701.66 160.02 702 159 C703.62903104 157.2722398 705.28545162 155.63927553 707 154 C708.3985099 152.60684838 709.79420223 151.2108643 711.1875 149.8125 C713.125 147.875 715.0625 145.9375 717 144 C717.60935098 162.34615177 717.06427752 179.19643844 712 197 C711.68933594 198.14984375 711.37867188 199.2996875 711.05859375 200.484375 C706.82801897 214.52305363 699.81672282 227.36379514 691 239 C690.02933594 240.30517578 690.02933594 240.30517578 689.0390625 241.63671875 C679.90440982 253.51176724 669.74072382 262.33133509 657 270 C656.1349585 270.5273877 656.1349585 270.5273877 655.25244141 271.06542969 C631.44360875 285.34389748 604.20599111 291.40565316 577 295 C578.81039471 295.48706051 580.62346567 295.96417519 582.4375 296.4375 C583.44683594 296.70433594 584.45617187 296.97117187 585.49609375 297.24609375 C592.52232102 298.7578684 599.53611167 299.15621099 606.70703125 299.16796875 C607.90586693 299.17438889 607.90586693 299.17438889 609.12892151 299.18093872 C611.69017254 299.19085238 614.25123359 299.19100727 616.8125 299.1875 C618.12399017 299.18609512 618.12399017 299.18609512 619.4619751 299.18466187 C638.60531287 299.14007096 655.7421275 298.01526528 674 292 C676.32772308 291.31113264 678.66193938 290.65332612 681 290 C675.73859248 305.62716562 666.67445746 319.57420526 656 332 C655.56075195 332.52287598 655.12150391 333.04575195 654.66894531 333.58447266 C635.35208301 356.45970433 607.55011425 371.15203114 577.61572266 373.81469727 C561.40886521 374.96282166 546.08876315 373.52852764 530.17871094 370.3671875 C527.87519253 369.9169047 527.87519253 369.9169047 525 370 C544.23756987 387.27781743 566.39163677 393.9449874 592 394 C590.83210937 395.16595703 590.83210937 395.16595703 589.640625 396.35546875 C588.00052518 397.99799475 586.36867775 399.64885898 584.75 401.3125 C567.54083653 418.13054612 547.78937039 429.53689643 524.375 435.1875 C523.68220947 435.35475586 522.98941895 435.52201172 522.27563477 435.69433594 C492.38274914 442.55163736 458.23968689 439.12111482 432 423 C427.75125014 420.02035724 423.4539043 416.90441355 420 413 C420 412.34 420 411.68 420 411 C419.01 411 418.02 411 417 411 C414.47434732 420.81208645 412.97170286 430.56943877 411.875 440.625 C411.78939819 441.38848755 411.70379639 442.1519751 411.61560059 442.93859863 C409.69836863 460.2618067 409.18673027 477.5825728 409 495 C406.38504325 491.77993494 403.99600372 488.53412675 401.75488281 485.04101562 C392.47269899 470.61219917 381.28193462 458.00443047 369.49609375 445.59326172 C366.5706241 442.47778931 363.76718715 439.25612624 361 436 C361.41507813 436.67417969 361.83015625 437.34835937 362.2578125 438.04296875 C379.20492986 466.58361619 391.59196549 497.58252845 402 529 C402.27859863 529.82935059 402.55719727 530.65870117 402.84423828 531.51318359 C408.17818241 547.42846111 411.80326012 563.602975 414.3125 580.1875 C414.48402588 581.30938721 414.65555176 582.43127441 414.83227539 583.5871582 C416.66469185 596.37014887 415.62443948 606.64967009 412 619 C411.76925781 619.79341797 411.53851562 620.58683594 411.30078125 621.40429688 C404.15565102 645.46712963 392.73849732 667.71475638 378 688 C376.72906586 685.45813172 377.14818135 684.49445039 377.7421875 681.74609375 C377.92136719 680.89080078 378.10054687 680.03550781 378.28515625 679.15429688 C378.47980469 678.25775391 378.67445313 677.36121094 378.875 676.4375 C388.26072536 632.77769481 374.02574576 591.13257337 350.45117188 554.32885742 C341.1959891 540.23727731 330.55019552 527.25193154 319 515 C317.82526668 513.6737683 316.65772736 512.34110262 315.5 511 C304.46148333 498.32132638 292.94584853 485.66712528 280.0859375 474.80078125 C277.15706391 472.27229674 274.33451365 469.63333652 271.5 467 C268.02629663 463.7736791 264.54727201 460.57471186 260.9375 457.5 C251.75719082 449.50362076 243.77940792 441.12923301 237 431 C236.00484375 431.32613281 235.0096875 431.65226562 233.984375 431.98828125 C196.77415102 443.79810941 156.02660298 441.77003181 120.98681641 424.06640625 C107.99046113 417.09072674 96.11468711 406.67488517 86 396 C85.34 395.34 84.68 394.68 84 394 C84.648479 393.96559814 85.29695801 393.93119629 85.96508789 393.89575195 C99.01569337 393.15049825 110.88718501 392.23915733 123 387 C124.02867187 386.56816406 125.05734375 386.13632812 126.1171875 385.69140625 C133.2280739 382.43148041 145.32397696 376.35204609 149 369 C148.22398437 369.19335938 147.44796875 369.38671875 146.6484375 369.5859375 C133.90226916 372.6584029 121.96616668 374.1806367 108.875 374.25 C107.24848511 374.26389771 107.24848511 374.26389771 105.58911133 374.27807617 C73.11063562 374.15256263 44.99987316 360.80296864 22.22265625 338.25 C13.54075761 329.0463848 6.82121966 318.71925929 0.625 307.75 C0.20798828 307.01773193 -0.20902344 306.28546387 -0.63867188 305.53100586 C-3.40361939 300.5158737 -5.36941818 295.48688364 -7 290 C-2.79407147 290.71029913 1.04637262 292.01432973 5.0625 293.4375 C21.42732778 299.03483802 38.49363056 299.20760016 55.625 299.1875 C56.81239273 299.18759064 56.81239273 299.18759064 58.02377319 299.18768311 C79.26916402 299.18580798 79.26916402 299.18580798 100 295 C99.33282959 294.91024902 98.66565918 294.82049805 97.97827148 294.72802734 C77.74753807 291.95176845 57.66419286 288.61854783 39 280 C37.04267666 279.22660566 35.0843068 278.45585561 33.125 277.6875 C22.84827748 273.37100927 13.62126624 267.64341302 4.625 261.125 C3.96395264 260.64853027 3.30290527 260.17206055 2.62182617 259.68115234 C1.04051668 258.50701899 -0.48590707 257.25962353 -2 256 C-2 255.34 -2 254.68 -2 254 C-2.55300781 253.78859375 -3.10601562 253.5771875 -3.67578125 253.359375 C-6.81125838 251.5255161 -8.89619894 249.01000388 -11.1875 246.25 C-11.66872314 245.67290283 -12.14994629 245.09580566 -12.64575195 244.5012207 C-36.52241366 215.28886004 -44.34530149 181.02399328 -44 144 C-41.31358771 146.66651294 -38.65638416 149.35189903 -36.046875 152.09375 C-6.98570434 182.32695687 28.90905376 196.45422149 68 209 C67.45182617 208.63938477 66.90365234 208.27876953 66.33886719 207.90722656 C60.88990215 204.30166938 55.54004441 200.58439461 50.25 196.75 C49.47068115 196.18571289 48.6913623 195.62142578 47.88842773 195.04003906 C41.15942548 190.14898411 34.53738338 185.14459864 28 180 C27.10410156 179.31035156 26.20820313 178.62070312 25.28515625 177.91015625 C-2.27974645 156.17395545 -19.22259765 129.12395122 -23.5390625 94.0625 C-24.39841408 85.7089541 -24.28495799 77.38078428 -24 69 C-23.98066406 67.86433594 -23.96132812 66.72867188 -23.94140625 65.55859375 C-22.96760678 42.45298819 -13.42572859 18.5992363 0 0 Z " fill="#F87F31" transform="translate(175,114)"/>
<path d="M0 0 C2 0 2 0 3.3046875 1.2578125 C4.08199219 2.18207031 4.08199219 2.18207031 4.875 3.125 C5.49632812 3.85589844 6.11765625 4.58679688 6.7578125 5.33984375 C7.49773437 6.21769531 8.23765625 7.09554687 9 8 C10.40452884 9.63827147 11.81274481 11.27333288 13.22094727 12.90844727 C14.78359581 14.72658872 16.33938506 16.55043947 17.89453125 18.375 C19.83029979 20.64348812 21.78347242 22.89349819 23.76171875 25.125 C43.0987031 47.1228435 57.712867 72.58754204 65 101 C65.21398437 101.76828125 65.42796875 102.5365625 65.6484375 103.328125 C74.22307473 134.89273163 64.13234078 168.87895493 48.54736328 196.36621094 C45.91066381 200.85417463 43.1060893 205.23368503 40.3125 209.625 C36.12781536 216.22128107 32.424311 222.80102839 29.375 230 C29.06860596 230.71623535 28.76221191 231.4324707 28.4465332 232.17041016 C23.99534418 243.24976689 22.53722943 254.05559351 22.75 265.9375 C22.75773437 267.70577148 22.75773437 267.70577148 22.765625 269.50976562 C22.81348247 274.80100691 23.03137194 279.78658753 24 285 C-4.97413173 271.43764047 -31.13570591 248.21180901 -43 218 C-44.51705163 213.70645765 -45.86269533 209.40907689 -47 205 C-47.26490234 204.07344604 -47.26490234 204.07344604 -47.53515625 203.12817383 C-49.40151353 195.95852903 -49.38465404 188.81042712 -49.375 181.4375 C-49.37478851 180.77147766 -49.37457703 180.10545532 -49.37435913 179.41925049 C-49.34146768 169.04955657 -48.58685382 159.78446681 -45 150 C-44.63777344 148.96875 -44.27554687 147.9375 -43.90234375 146.875 C-39.2198944 134.68475897 -32.14368657 124.00881486 -24.57739258 113.46923828 C-5.3334903 86.57700156 10.28555571 55.04366523 4.6875 21.125 C3.4650991 13.99371035 1.92886631 6.97675049 0 0 Z " fill="#FDB23A" transform="translate(474,627)"/>
<path d="M0 0 C0.66 0 1.32 0 2 0 C3.46948242 1.48193359 3.46948242 1.48193359 5.16796875 3.5234375 C7.57845229 6.35966716 10.02194118 9.11680901 12.61328125 11.7890625 C35.40284723 35.36090689 49.44740169 61.40513609 49.30053711 94.91723633 C48.80346277 119.85342762 40.45012342 142.15658054 24 161 C23.22785156 161.90492188 22.45570313 162.80984375 21.66015625 163.7421875 C15.95378774 170.25087322 9.88127702 175.76324713 3 181 C2.04480469 181.75539063 1.08960938 182.51078125 0.10546875 183.2890625 C-8.50723627 189.80965545 -17.77681972 194.76775203 -27.30932617 199.8203125 C-52.43972731 213.15527653 -52.43972731 213.15527653 -70.59765625 234.58984375 C-71.92454306 236.87031496 -73.3765239 238.92368487 -75 241 C-86.11902917 220.05736253 -88.19838231 197.78695121 -81.39794922 174.98095703 C-75.05134207 155.12344536 -63.11201856 138.1162446 -49 123 C-47.80722289 121.62957524 -46.61942068 120.25479881 -45.4375 118.875 C-43.15021079 116.23702801 -40.77137095 113.78896975 -38.25 111.375 C-15.57140407 88.91573285 1.91527944 56.45300538 2.25 24.1875 C2.22415213 16.04144405 1.19827262 8.04554471 0 0 Z " fill="#FDB13A" transform="translate(627,672)"/>
<path d="M0 0 C16.77204706 5.03161412 30.12569027 13.50830851 38.73046875 29.14453125 C43.52174335 39.1174806 46.43002766 48.945991 47 60 C47.05285156 60.804375 47.10570312 61.60875 47.16015625 62.4375 C47.96842324 85.49068013 37.95508793 104.4862133 27.44238281 124.28369141 C15.55439064 146.67126773 7.67260049 168.67254987 15 194 C16.35745594 197.62713677 18.03393345 201.07384516 19.79296875 204.5234375 C21 207 21 207 21 209 C11.87238888 204.85298034 4.26456537 196.75232037 -3 190 C-3.763125 189.31421875 -4.52625 188.6284375 -5.3125 187.921875 C-19.42875943 174.68788179 -29.57185707 154.83190094 -30.203125 135.3984375 C-30.3567381 125.52219149 -29.99314527 116.50262785 -27 107 C-26.52433594 105.38158203 -26.52433594 105.38158203 -26.0390625 103.73046875 C-22.20106943 91.8218023 -15.8029288 81.24860707 -9.33984375 70.6015625 C2.16502993 51.60099154 9.33022465 33.08262058 4.7109375 10.48828125 C3.62042949 6.67150322 1.95272855 3.44982043 0 0 Z " fill="#FDB63C" transform="translate(372,639)"/>
<path d="M0 0 C0.33 0.99 0.66 1.98 1 3 C1.66 3.33 2.32 3.66 3 4 C2.97679687 4.99 2.95359375 5.98 2.9296875 7 C2.79548412 15.15337171 3.05481328 22.1370332 6.125 29.8125 C7 32 7 32 7 35 C7.66 35.33 8.32 35.66 9 36 C11.30215827 41.17985612 11.30215827 41.17985612 10.125 44.375 C9.75375 44.91125 9.3825 45.4475 9 46 C10.485 45.505 10.485 45.505 12 45 C11.979375 46.0725 11.95875 47.145 11.9375 48.25 C11.9857984 51.14790424 12.13155885 53.28612141 13 56 C13.66 56 14.32 56 15 56 C15.33 57.98 15.66 59.96 16 62 C16.66 62 17.32 62 18 62 C18.33 63.98 18.66 65.96 19 68 C20.485 67.505 20.485 67.505 22 67 C22.165 67.928125 22.33 68.85625 22.5 69.8125 C24.12526262 75.63237422 28.19459803 80.41766179 32 85 C32.99 85.495 32.99 85.495 34 86 C34 86.66 34 87.32 34 88 C35.65 88 37.3 88 39 88 C39 88.99 39 89.98 39 91 C43.90064269 97.75493993 50.97648344 104.32549448 59 107 C59 107.66 59 108.32 59 109 C60.65 109.33 62.3 109.66 64 110 C64 110.66 64 111.32 64 112 C65.485 112.495 65.485 112.495 67 113 C66.01 113.495 66.01 113.495 65 114 C56.47375567 110.02849205 48.09176185 104.17385651 41 98 C41 97.34 41 96.68 41 96 C40.44699219 95.78859375 39.89398438 95.5771875 39.32421875 95.359375 C36.18874162 93.5255161 34.10380106 91.01000388 31.8125 88.25 C31.33127686 87.67290283 30.85005371 87.09580566 30.35424805 86.5012207 C10.55532427 62.27784688 -1.58271469 31.47843656 0 0 Z " fill="#F39E2D" transform="translate(132,272)"/>
<path d="M0 0 C0.33 0 0.66 0 1 0 C1.16907864 4.67707567 1.32946391 9.35434377 1.48217773 14.03198242 C1.53519053 15.61962689 1.59048174 17.20719713 1.64819336 18.79467773 C2.45038278 40.96998341 2.45038278 40.96998341 -1.3125 48.4375 C-3.04518263 51.98207361 -4.58474384 55.48163019 -5.9375 59.1875 C-7.59989242 63.46611655 -9.81825729 66.77707656 -12.73046875 70.30859375 C-14.20492144 72.08713399 -14.20492144 72.08713399 -15 75 C-15.804375 75.474375 -16.60875 75.94875 -17.4375 76.4375 C-20.21104282 78.12868465 -20.74868496 79.11234991 -22 82 C-22.99 82.495 -22.99 82.495 -24 83 C-24 83.66 -24 84.32 -24 85 C-25.12148438 85.07347656 -25.12148438 85.07347656 -26.265625 85.1484375 C-27.74289062 85.26058594 -27.74289062 85.26058594 -29.25 85.375 C-30.71179688 85.47941406 -30.71179688 85.47941406 -32.203125 85.5859375 C-34.91600643 85.9875652 -36.6062868 86.74015095 -39 88 C-41.25 87.625 -41.25 87.625 -43 87 C-42.505 86.01 -42.505 86.01 -42 85 C-40.06640625 84.359375 -40.06640625 84.359375 -37.5625 83.75 C-26.0630732 80.4363278 -17.84210306 73.7532305 -11.8671875 63.42578125 C-3.15902731 47.45916145 -1.01650424 30.97760696 -0.4375 13 C-0.37272461 11.12248047 -0.37272461 11.12248047 -0.30664062 9.20703125 C-0.20121983 6.13811477 -0.09909658 3.06912611 0 0 Z " fill="#F2652D" transform="translate(630,338)"/>
<path d="M0 0 C0.33 0 0.66 0 1 0 C0.99333817 0.98733124 0.98667633 1.97466248 0.97981262 2.99191284 C0.91854135 12.37516975 0.87380925 21.75838518 0.84456348 31.14179802 C0.82902167 35.96392135 0.8079981 40.78588099 0.77368164 45.60791016 C0.74067242 50.27638441 0.7230611 54.94470296 0.71536827 59.61328506 C0.70989825 61.37914602 0.6992213 63.14500014 0.68280983 64.9107933 C0.57577489 76.92390703 1.65378218 88.21321089 4 100 C2.515 100.495 2.515 100.495 1 101 C-0.42705634 95.69276568 -1.4002792 91.46108889 0 86 C-0.66 86 -1.32 86 -2 86 C-1.98839844 85.443125 -1.97679687 84.88625 -1.96484375 84.3125 C-1.95582031 83.549375 -1.94679688 82.78625 -1.9375 82 C-1.92589844 81.2575 -1.91429687 80.515 -1.90234375 79.75 C-1.9597221 76.84306588 -1.9597221 76.84306588 -2.49609375 73.36328125 C-3.16054725 68.30398463 -3.14865764 63.28360816 -3.125 58.1875 C-3.12306641 57.16084229 -3.12113281 56.13418457 -3.11914062 55.07641602 C-3.06257746 44.62401477 -2.65922762 34.18823497 -2.21875 23.74609375 C-2.04287644 19.49146492 -1.95113076 15.25773241 -2 11 C-1.34 11 -0.68 11 0 11 C0 7.37 0 3.74 0 0 Z " fill="#F56B29" transform="translate(557,291)"/>
<path d="M0 0 C2.02999279 3.04498919 2.70188742 5.16845066 3.5625 8.6875 C3.81128906 9.68136719 4.06007813 10.67523437 4.31640625 11.69921875 C6.24300217 21.00192477 6.32397733 30.33042271 6.60546875 39.796875 C6.66154297 41.48296875 6.66154297 41.48296875 6.71875 43.203125 C6.74904297 44.22051758 6.77933594 45.23791016 6.81054688 46.28613281 C6.97722819 48.67379971 7.3919585 50.6995353 8 53 C8 54.66666667 8 56.33333333 8 58 C8.99 57.34 9.98 56.68 11 56 C10.67 54.68 10.34 53.36 10 52 C11.32 52 12.64 52 14 52 C14.33 51.34 14.66 50.68 15 50 C14.45028152 54.78255078 12.23812665 58.36500948 9.75 62.375 C9.36714844 63.00921875 8.98429688 63.6434375 8.58984375 64.296875 C5.91589622 68.67892948 3.02289185 72.85156331 0 77 C-1.27093414 74.45813172 -0.85181865 73.49445039 -0.2578125 70.74609375 C-0.07863281 69.89080078 0.10054687 69.03550781 0.28515625 68.15429688 C0.47980469 67.25775391 0.67445313 66.36121094 0.875 65.4375 C2.88791913 56.07395549 4.19822343 47.02639043 4.1875 37.4375 C4.1862915 36.28338623 4.1862915 36.28338623 4.18505859 35.10595703 C4.07463011 24.53730108 2.74993973 14.21406187 0 4 C0 2.68 0 1.36 0 0 Z " fill="#F69626" transform="translate(553,725)"/>
<path d="M0 0 C5.27749285 0.53851968 9.25645564 1.77343836 14 4 C14.05399736 5.45792884 14.09279177 6.91642712 14.125 8.375 C14.14820313 9.18710938 14.17140625 9.99921875 14.1953125 10.8359375 C14 13 14 13 12 15 C8.9609375 15.4140625 8.9609375 15.4140625 5.375 15.625 C4.18648438 15.69976562 2.99796875 15.77453125 1.7734375 15.8515625 C0.85820312 15.90054688 -0.05703125 15.94953125 -1 16 C-1.02692484 13.70839681 -1.04636124 11.41670454 -1.0625 9.125 C-1.07410156 7.84882813 -1.08570313 6.57265625 -1.09765625 5.2578125 C-1 2 -1 2 0 0 Z " fill="#63210F" transform="translate(481,226)"/>
<path d="M0 0 C0.33 0 0.66 0 1 0 C2.40027356 24.98265839 2.40027356 24.98265839 1 35 C1.66 35 2.32 35 3 35 C2.9175 35.99 2.835 36.98 2.75 38 C2.71753074 41.23393827 3.43978343 43.09797989 5.0625 45.875 C7.58746541 50.39335915 7.05043899 54.06750387 6 59 C6.66 59 7.32 59 8 59 C8.28875 60.093125 8.5775 61.18625 8.875 62.3125 C9.81893204 66.04013845 9.81893204 66.04013845 12 69 C12.6328125 71.26171875 12.6328125 71.26171875 13.125 73.6875 C13.29257813 74.49574219 13.46015625 75.30398437 13.6328125 76.13671875 C13.75398437 76.75160156 13.87515625 77.36648437 14 78 C2.56341863 68.12144566 0.26362286 44.32369164 -1 30 C-1.52293206 19.98984575 -1.32538382 9.94037865 0 0 Z " fill="#F6A02B" transform="translate(152,173)"/>
<path d="M0 0 C0.99 0.495 0.99 0.495 2 1 C2.63817067 3.3045052 3.02037323 5.61496323 3.4375 7.96875 C3.623125 8.6390625 3.80875 9.309375 4 10 C4.66 10.33 5.32 10.66 6 11 C6.66 9.02 7.32 7.04 8 5 C8.33 5 8.66 5 9 5 C9.17015625 6.28132813 9.3403125 7.56265625 9.515625 8.8828125 C11.43969212 25.98559854 11.43969212 25.98559854 17.6875 41.75390625 C18.120625 42.49511719 18.55375 43.23632812 19 44 C18.67 44.66 18.34 45.32 18 46 C9.37370925 33.33013546 0 15.65236561 0 0 Z " fill="#382F85" transform="translate(420,472)"/>
<path d="M0 0 C0.495 1.485 0.495 1.485 1 3 C-0.09758507 3.84198307 -1.20335317 4.67330671 -2.3125 5.5 C-2.92738281 5.9640625 -3.54226563 6.428125 -4.17578125 6.90625 C-6 8 -6 8 -9 8 C-9.33 8.99 -9.66 9.98 -10 11 C-12.3125 12.0625 -12.3125 12.0625 -15 13 C-17.25160856 13.70834575 -17.25160856 13.70834575 -19 15 C-19.81171228 17.55519921 -19.81171228 17.55519921 -20 20 C-20.845625 20.144375 -21.69125 20.28875 -22.5625 20.4375 C-26.9832095 22.44691341 -28.74388068 25.18833412 -31.484375 29.1015625 C-31.98453125 29.72804688 -32.4846875 30.35453125 -33 31 C-33.66 31 -34.32 31 -35 31 C-35.18175781 31.61488281 -35.36351562 32.22976563 -35.55078125 32.86328125 C-35.80214844 33.67152344 -36.05351563 34.47976563 -36.3125 35.3125 C-36.55613281 36.11300781 -36.79976562 36.91351563 -37.05078125 37.73828125 C-38.04182023 40.09964573 -39.08074943 41.33879993 -41 43 C-42.19393714 39.41818857 -41.83195691 38.86185534 -40.25 35.5625 C-31.60093855 19.21744172 -15.19293279 9.50682037 0 0 Z " fill="#F0642C" transform="translate(673,292)"/>
<path d="M0 0 C2.92764905 1.35973034 5.34414908 2.94026223 7.875 4.9375 C11.09423775 7.40317086 14.28700721 9.32915324 18 11 C18 11.66 18 12.32 18 13 C19.0725 13.0825 20.145 13.165 21.25 13.25 C25.41980282 14.08396056 26.20208715 15.01555963 29 18 C31.64184541 18.79681318 31.64184541 18.79681318 34 19 C34 19.66 34 20.32 34 21 C34.60328125 21.04898437 35.2065625 21.09796875 35.828125 21.1484375 C36.62734375 21.22320312 37.4265625 21.29796875 38.25 21.375 C39.03890625 21.44460938 39.8278125 21.51421875 40.640625 21.5859375 C43.12492522 22.02192396 44.76181177 22.86420299 47 24 C49.07158792 24.58498208 51.15642808 25.12436324 53.25 25.625 C54.32765625 25.88539063 55.4053125 26.14578125 56.515625 26.4140625 C57.33546875 26.60742188 58.1553125 26.80078125 59 27 C59 27.33 59 27.66 59 28 C39.17434087 27.47576382 17.47988994 17.18868956 3 4 C1.96590993 2.69292866 0.95517137 1.36580578 0 0 Z " fill="#F3A02A" transform="translate(205,458)"/>
<path d="M0 0 C4.49777719 1.51619985 8.03741626 4.0147378 11.8125 6.8125 C16.76434421 10.42151523 21.74157828 13.84494697 27 17 C25 18 25 18 22.29443359 17.28735352 C21.17375488 16.90506592 20.05307617 16.52277832 18.8984375 16.12890625 C17.08085937 15.51499023 17.08085937 15.51499023 15.2265625 14.88867188 C13.9426531 14.44677503 12.65879964 14.00471562 11.375 13.5625 C10.08356566 13.12366466 8.79190154 12.68550491 7.5 12.24804688 C4.33100424 11.17200727 1.16454188 10.08905457 -2 9 C0.98613386 8.24070528 3.97514219 7.5881668 7 7 C7 6.34 7 5.68 7 5 C6.21625 4.9175 5.4325 4.835 4.625 4.75 C2 4 2 4 0.6875 1.9375 C0.460625 1.298125 0.23375 0.65875 0 0 Z " fill="#372D85" transform="translate(218,306)"/>
<path d="M0 0 C9.24 1.65 18.48 3.3 28 5 C28 5.33 28 5.66 28 6 C23.38 6.33 18.76 6.66 14 7 C14 7.99 14 8.98 14 10 C15.57201172 10.83144531 15.57201172 10.83144531 17.17578125 11.6796875 C18.55473151 12.41137539 19.93363534 13.1431508 21.3125 13.875 C22.00279297 14.23980469 22.69308594 14.60460937 23.40429688 14.98046875 C24.07138672 15.33496094 24.73847656 15.68945312 25.42578125 16.0546875 C26.03848877 16.37937012 26.65119629 16.70405273 27.2824707 17.03857422 C28.90258648 17.94547058 30.45515434 18.9701029 32 20 C20.44259063 18.61794806 10.27469956 10.77731324 2 3 C1.34 2.01 0.68 1.02 0 0 Z " fill="#352D87" transform="translate(698,482)"/>
<path d="M0 0 C0.33 0.66 0.66 1.32 1 2 C0 4 0 4 -1 6 C-1 7.32 -1 8.64 -1 10 C-2.375 11.5 -2.375 11.5 -4 13 C-6.97691928 18.44218056 -9.25086652 24.17724012 -9 30.4375 C-9 31.613125 -9 32.78875 -9 34 C-9.99 34.66 -10.98 35.32 -12 36 C-12.36297936 37.97747122 -12.36297936 37.97747122 -12.1875 40.125 C-12.125625 41.40375 -12.06375 42.6825 -12 44 C-12.99 44.495 -12.99 44.495 -14 45 C-14.65213292 47.02463255 -14.65213292 47.02463255 -15 49 C-16 48 -16 48 -16.0546875 46.05859375 C-15.22813502 34.00170865 -10.87920009 22.85365542 -6.375 11.75 C-6.08608887 11.03505371 -5.79717773 10.32010742 -5.49951172 9.58349609 C-4.01801543 6.03827463 -2.49709848 2.93598245 0 0 Z " fill="#F39C2E" transform="translate(169,124)"/>
<path d="M0 0 C1.0209375 0.44472656 2.041875 0.88945312 3.09375 1.34765625 C5.06808124 2.21923602 7.03528758 3.1069489 9 4 C8.34 4.99 7.68 5.98 7 7 C4.97954558 6.39816251 2.97888961 5.72693904 1 5 C0.505 4.01 0.505 4.01 0 3 C-3.656142 0.77175425 -7.82155289 -0.38221566 -11.875 -1.6875 C-12.56980469 -1.92533203 -13.26460938 -2.16316406 -13.98046875 -2.40820312 C-18.45123922 -3.843733 -21.31738288 -3.92953444 -26 -3 C-26.66 -3.66 -27.32 -4.32 -28 -5 C-27.67 -5.66 -27.34 -6.32 -27 -7 C-27.8971875 -6.690625 -27.8971875 -6.690625 -28.8125 -6.375 C-31 -6 -31 -6 -34 -8 C-21.8135626 -10.64922552 -10.9337514 -4.77385257 0 0 Z " fill="#F29740" transform="translate(524,211)"/>
<path d="M0 0 C0.66 0.33 1.32 0.66 2 1 C-5 8 -5 8 -7.0625 8.4375 C-7.701875 8.623125 -8.34125 8.80875 -9 9 C-9.33 9.99 -9.66 10.98 -10 12 C-8.68 12.33 -7.36 12.66 -6 13 C-6.58491211 13.20157715 -7.16982422 13.4031543 -7.77246094 13.61083984 C-10.43262838 14.52939429 -13.09131912 15.45215209 -15.75 16.375 C-16.67039062 16.69210937 -17.59078125 17.00921875 -18.5390625 17.3359375 C-19.87324219 17.8 -19.87324219 17.8 -21.234375 18.2734375 C-22.05131836 18.55622559 -22.86826172 18.83901367 -23.70996094 19.13037109 C-26.01896581 19.94477126 -26.01896581 19.94477126 -28.11035156 21.17041016 C-30 22 -30 22 -33 21 C-32.22398437 20.61070312 -31.44796875 20.22140625 -30.6484375 19.8203125 C-23.02678025 15.87305803 -16.0964741 11.42479878 -9.19140625 6.33203125 C-6.17550826 4.12824777 -3.12186815 2.04828453 0 0 Z " fill="#342C87" transform="translate(804,305)"/>
<path d="M0 0 C0 0.66 0 1.32 0 2 C0.66386719 2.12117187 1.32773437 2.24234375 2.01171875 2.3671875 C13.14836795 4.48071217 13.14836795 4.48071217 17.4375 8 C19.92895123 10.18936523 19.92895123 10.18936523 23.25 11 C24.61125 11.495 24.61125 11.495 26 12 C26.875 14.125 26.875 14.125 27 16 C23.46483126 14.70843176 20.2957692 13.06473754 17.04125977 11.18188477 C3.63229508 3.53702659 -9.72661881 1.40620695 -25 1 C-25 0.67 -25 0.34 -25 0 C-3.73333333 -1.86666667 -3.73333333 -1.86666667 0 0 Z " fill="#F09C3B" transform="translate(424,233)"/>
<path d="M0 0 C-1.22026742 2.69185542 -2.45081136 5.37819736 -3.6875 8.0625 C-4.02716797 8.81466797 -4.36683594 9.56683594 -4.71679688 10.34179688 C-7.02873512 15.33299065 -9.67516335 19.61540806 -13 24 C-13.33 23.34 -13.66 22.68 -14 22 C-13.01 20.515 -13.01 20.515 -12 19 C-11.835 18.13375 -11.67 17.2675 -11.5 16.375 C-11.335 15.59125 -11.17 14.8075 -11 14 C-10.34 13.67 -9.68 13.34 -9 13 C-9 12.34 -9 11.68 -9 11 C-9.66 10.67 -10.32 10.34 -11 10 C-10.835 9.236875 -10.67 8.47375 -10.5 7.6875 C-9.90854604 4.96403764 -9.90854604 4.96403764 -10 2 C-8.71211992 1.46987262 -7.41953322 0.9511671 -6.125 0.4375 C-5.40570312 0.14746094 -4.68640625 -0.14257812 -3.9453125 -0.44140625 C-2 -1 -2 -1 0 0 Z " fill="#F18229" transform="translate(856,405)"/>
<path d="M0 0 C3.78239671 0.65690619 7.21841526 1.720131 10.8125 3.0625 C11.78832031 3.42472656 12.76414063 3.78695313 13.76953125 4.16015625 C14.50558594 4.43730469 15.24164063 4.71445312 16 5 C16 5.66 16 6.32 16 7 C15.01 7.33 14.02 7.66 13 8 C11.30485863 7.04906703 9.63631892 6.04892238 8 5 C7.34 5 6.68 5 6 5 C5.67 5.66 5.34 6.32 5 7 C5.99 7.33 6.98 7.66 8 8 C9 11 9 11 9 13 C9.515625 14.134375 10.03125 15.26875 10.5625 16.4375 C12 20 12 20 11 23 C6.5173816 15.5147726 2.33777388 8.47443032 0 0 Z " fill="#F39D2E" transform="translate(168,404)"/>
<path d="M0 0 C10.35624805 0.78550384 20.67497586 1.88757585 31 3 C21.82264615 8.06184985 11.230759 8.45209573 1 8 C1 7.67 1 7.34 1 7 C3.97 7 6.94 7 10 7 C9.67 5.68 9.34 4.36 9 3 C4.545 2.01 4.545 2.01 0 1 C0 0.67 0 0.34 0 0 Z " fill="#342B87" transform="translate(248,405)"/>
<path d="M0 0 C4.02866835 3.91634488 7.71808635 8.04939718 11.375 12.3125 C11.95515869 12.984021 12.53531738 13.65554199 13.13305664 14.34741211 C15.40438934 16.97672139 17.67053561 19.60922424 19.91015625 22.265625 C25.84151962 29.24369956 32.48870045 35.56997881 39 42 C36 42 36 42 33.65625 39.859375 C32.7796875 38.91578125 31.903125 37.9721875 31 37 C29.17215021 35.07760626 27.33923599 33.16136289 25.5 31.25 C25.03980469 30.75628906 24.57960937 30.26257813 24.10546875 29.75390625 C21.21205394 26.7789868 19.17666763 25.33292278 15 25 C14.7834375 23.99710938 14.566875 22.99421875 14.34375 21.9609375 C13.04189274 17.41131311 10.47552312 14.23099572 7.5 10.625 C7.00113281 9.99722656 6.50226563 9.36945313 5.98828125 8.72265625 C3.40764469 5.38141767 3.40764469 5.38141767 0 3 C0 2.01 0 1.02 0 0 Z " fill="#F79C26" transform="translate(201,175)"/>
<path d="M0 0 C4.02890223 1.37689281 6.69622015 3.21989588 9.8984375 6.00390625 C16.46845624 11.50979808 23.48656187 16.20655323 30.625 20.9375 C32.54009196 22.20868746 34.45394805 23.48155477 36.36410522 24.76014709 C38.06994544 25.90185197 39.78021008 27.03693813 41.49072266 28.17163086 C44 30 44 30 45 32 C40.59033771 31.51003752 39.02554636 30.12314463 36 27 C35.01 26.7525 35.01 26.7525 34 26.5 C31.19750596 25.79937649 29.9791618 24.04300573 28 22 C27.01 21.67 26.02 21.34 25 21 C24.195625 20.154375 23.39125 19.30875 22.5625 18.4375 C20.10640106 15.54052416 20.10640106 15.54052416 16 16 C14.96935116 14.35211021 13.97430894 12.68181446 13 11 C10.37888483 8.81180383 10.37888483 8.81180383 7.4375 6.875 C4.19051324 4.65859735 2.19444636 3.29166954 0 0 Z " fill="#F19329" transform="translate(256,232)"/>
<path d="M0 0 C3.43998071 1.20864187 5.49924271 2.38557192 8 5 C8.99 5.33 9.98 5.66 11 6 C11.33 6.66 11.66 7.32 12 8 C12.639375 8.12375 13.27875 8.2475 13.9375 8.375 C14.618125 8.58125 15.29875 8.7875 16 9 C16.43989258 9.91604004 16.43989258 9.91604004 16.88867188 10.85058594 C18.2021134 13.39090649 19.51204932 14.38517948 21.84375 16.015625 C22.59527344 16.54414063 23.34679687 17.07265625 24.12109375 17.6171875 C24.90613281 18.15601563 25.69117188 18.69484375 26.5 19.25 C27.28503906 19.80429687 28.07007813 20.35859375 28.87890625 20.9296875 C32.61212627 23.88559761 32.61212627 23.88559761 37 25 C37 25.66 37 26.32 37 27 C37.99 27 38.98 27 40 27 C41.6875 29.5 41.6875 29.5 43 32 C37.81862732 30.35511978 33.82268099 27.18525309 29.5 24 C28.70553467 23.41984131 27.91106934 22.83968262 27.0925293 22.24194336 C7.95470996 8.21473694 7.95470996 8.21473694 0 1 C0 0.67 0 0.34 0 0 Z " fill="#F29A2A" transform="translate(196,287)"/>
<path d="M0 0 C2.35171131 0.59861742 4.6859378 1.26924352 7 2 C7.33 2.66 7.66 3.32 8 4 C8.99 4.66 9.98 5.32 11 6 C10.34 6.66 9.68 7.32 9 8 C7.23649028 14.71448112 7.98686124 21.9720325 8.12695312 28.85351562 C8.13791016 29.85447266 8.14886719 30.85542969 8.16015625 31.88671875 C8.17699463 32.79639404 8.19383301 33.70606934 8.21118164 34.64331055 C8 37 8 37 6 40 C6.01047363 39.42145264 6.02094727 38.84290527 6.03173828 38.24682617 C6.57138927 18.40051117 6.57138927 18.40051117 0 0 Z " fill="#F5BF36" transform="translate(372,639)"/>
<path d="M0 0 C2.73616698 2.73616698 3.05186815 5.7797419 3.875 9.4375 C5.28446908 15.45362558 7.00402942 21.13617551 9.36328125 26.86328125 C10 29 10 29 9 32 C8.8453125 31.0409375 8.8453125 31.0409375 8.6875 30.0625 C8.460625 29.381875 8.23375 28.70125 8 28 C7.01 27.67 6.02 27.34 5 27 C4.7834375 25.39125 4.7834375 25.39125 4.5625 23.75 C4.02103843 19.81334935 4.02103843 19.81334935 3 16 C2.34 15.67 1.68 15.34 1 15 C0.40644386 12.35139573 0.25790731 9.70802678 0 7 C-0.33 7.66 -0.66 8.32 -1 9 C-3.0625 9.625 -3.0625 9.625 -5 10 C-3.84414715 6.08788267 -2.64465038 3.1254959 0 0 Z " fill="#F2982F" transform="translate(175,114)"/>
<path d="M0 0 C4.45851738 0.58554637 7.84848446 2.42453233 11.6875 4.625 C20.12138602 9.31179887 28.95661256 12.68512717 38 16 C38 16.99 38 17.98 38 19 C37.01 19.33 36.02 19.66 35 20 C34.34 19.01 33.68 18.02 33 17 C30.53292467 15.83388547 30.53292467 15.83388547 27.6875 14.9375 C24.08078395 13.71229905 20.52535767 12.44481872 17 11 C17 10.34 17 9.68 17 9 C13.00999834 7.57499941 9.19469571 6.59924224 5 6 C4.87625 5.071875 4.87625 5.071875 4.75 4.125 C4.18741541 1.81562433 4.18741541 1.81562433 1.9375 0.75 C1.298125 0.5025 0.65875 0.255 0 0 Z " fill="#F6992B" transform="translate(175,297)"/>
<path d="M0 0 C4.2877221 3.34651481 7.79431775 6.92533283 11.3203125 11.0625 C13.43646445 13.50345667 15.68170406 15.75195545 18 18 C17.67 18.66 17.34 19.32 17 20 C16.01 19.34 15.02 18.68 14 18 C14 18.99 14 19.98 14 21 C13.01 21 12.02 21 11 21 C9.34999614 18.06482399 7.70572568 15.12647526 6.0625 12.1875 C5.59392578 11.35412109 5.12535156 10.52074219 4.64257812 9.66210938 C3.9706543 8.45844727 3.9706543 8.45844727 3.28515625 7.23046875 C2.87144775 6.49207764 2.45773926 5.75368652 2.03149414 4.99291992 C1 3 1 3 0 0 Z " fill="#332E88" transform="translate(535,549)"/>
<path d="M0 0 C0.88300781 0.10183594 1.76601563 0.20367187 2.67578125 0.30859375 C3.33964844 0.39238281 4.00351562 0.47617188 4.6875 0.5625 C4.6875 0.8925 4.6875 1.2225 4.6875 1.5625 C2.0475 2.2225 -0.5925 2.8825 -3.3125 3.5625 C-3.3125 2.9025 -3.3125 2.2425 -3.3125 1.5625 C-4.199375 2.036875 -5.08625 2.51125 -6 3 C-8.94708307 4.39013353 -11.13136355 5.08532953 -14.3125 5.5625 C-15.405625 5.748125 -16.49875 5.93375 -17.625 6.125 C-18.511875 6.269375 -19.39875 6.41375 -20.3125 6.5625 C-20.3125 7.2225 -20.3125 7.8825 -20.3125 8.5625 C-23.33775676 10.96490978 -24.7250871 11.61791631 -28.625 11.25 C-29.511875 11.023125 -30.39875 10.79625 -31.3125 10.5625 C-31.3125 10.2325 -31.3125 9.9025 -31.3125 9.5625 C-30.47847656 9.30597656 -29.64445312 9.04945313 -28.78515625 8.78515625 C-24.27983151 7.19891706 -20.07603955 5.13866941 -15.79101562 3.04101562 C-10.20176205 0.36295008 -6.14342529 -0.73721103 0 0 Z " fill="#F4A03B" transform="translate(481.3125,201.4375)"/>
<path d="M0 0 C2.33638453 3.5045768 2.66976145 6.48881898 3.125 10.5625 C3.2070166 11.28630859 3.2890332 12.01011719 3.37353516 12.75585938 C3.59800425 14.83603263 3.80348256 16.91702082 4 19 C4.08765625 19.89589844 4.1753125 20.79179688 4.265625 21.71484375 C4.64789905 29.70164095 2.1185798 37.37689589 0 45 C-1.4606285 42.35261084 -2 41.10551666 -2 38 C-1.34 38 -0.68 38 0 38 C2.04948597 28.19399789 1.87924474 19.86387062 0.5078125 10.03125 C0.04029977 6.66515832 -0.09693354 3.40344437 0 0 Z " fill="#FA931F" transform="translate(587,688)"/>
<path d="M0 0 C0.33 0 0.66 0 1 0 C1.1688412 4.69539348 1.32925771 9.39097504 1.48217773 14.08691406 C1.53525172 15.68139209 1.59054955 17.27579783 1.64819336 18.87011719 C1.73108088 21.17366955 1.80572785 23.47737113 1.87890625 25.78125 C1.90594131 26.48366821 1.93297638 27.18608643 1.96083069 27.90979004 C2.32956089 40.38841104 2.32956089 40.38841104 -1.0625 44.5 C-1.701875 44.995 -2.34125 45.49 -3 46 C-2.8559912 44.33317469 -2.70968156 42.66654815 -2.5625 41 C-2.48128906 40.071875 -2.40007813 39.14375 -2.31640625 38.1875 C-2.0945761 35.95276666 -1.81759225 33.72314572 -1.5 31.5 C-0.71760608 25.36357712 -0.63644112 19.17695858 -0.4375 13 C-0.39431641 11.74832031 -0.35113281 10.49664062 -0.30664062 9.20703125 C-0.20121983 6.13811477 -0.09909658 3.06912611 0 0 Z " fill="#F86921" transform="translate(630,338)"/>
<path d="M0 0 C-0.33 1.32 -0.66 2.64 -1 4 C-1.86625 3.938125 -2.7325 3.87625 -3.625 3.8125 C-7.52934909 4.02940828 -9.71377356 4.90876499 -13 7 C-13.68268138 8.32520503 -14.3507041 9.65812182 -15 11 C-17.4375 12.375 -17.4375 12.375 -20 13 C-20.99 12.34 -21.98 11.68 -23 11 C-7.63888889 -0.69444444 -7.63888889 -0.69444444 0 0 Z " fill="#F7AA3A" transform="translate(431,212)"/>
<path d="M0 0 C0.33 0.66 0.66 1.32 1 2 C4.27555608 2.47001033 4.27555608 2.47001033 8.0625 2.625 C9.99802734 2.73714844 9.99802734 2.73714844 11.97265625 2.8515625 C13.47119141 2.92503906 13.47119141 2.92503906 15 3 C15 3.66 15 4.32 15 5 C22.59 6.32 30.18 7.64 38 9 C38 9.33 38 9.66 38 10 C31.46068219 10.184021 25.5794216 9.59684262 19.1875 8.25 C18.31963867 8.07243164 17.45177734 7.89486328 16.55761719 7.71191406 C9.84433116 6.29030642 3.41724206 4.45211688 -3 2 C-2.01 1.34 -1.02 0.68 0 0 Z " fill="#F59C28" transform="translate(231,397)"/>
<path d="M0 0 C1.31471568 0.28151087 2.62675767 0.57553339 3.9375 0.875 C4.66839844 1.03742187 5.39929688 1.19984375 6.15234375 1.3671875 C8 2 8 2 9 4 C11.16513298 5.32328745 11.16513298 5.32328745 13.75 6.5625 C14.61109375 6.99691406 15.4721875 7.43132813 16.359375 7.87890625 C18.93516176 8.97247252 21.26568158 9.46626105 24 10 C26.23828125 10.97265625 26.23828125 10.97265625 28.3125 12.0625 C29.00988281 12.42472656 29.70726562 12.78695312 30.42578125 13.16015625 C30.94527344 13.43730469 31.46476562 13.71445312 32 14 C27.40953237 15.49147394 24.19308787 13.82602727 19.9375 12 C19.1854126 11.68401855 18.4333252 11.36803711 17.65844727 11.04248047 C11.37201273 8.32304134 5.46161345 5.17583404 0 1 C0 0.67 0 0.34 0 0 Z " fill="#F1962A" transform="translate(287,531)"/>
<path d="M0 0 C3.67446149 1.58337451 6.31205938 3.8772082 9.3125 6.5 C16.10662748 12.3287826 23.47788675 17.17022783 31 22 C28 23 28 23 25.8125 22.0625 C24.9153125 21.5365625 24.9153125 21.5365625 24 21 C24 20.34 24 19.68 24 19 C23.21625 18.690625 22.4325 18.38125 21.625 18.0625 C19 17 19 17 17 16 C17 15.34 17 14.68 17 14 C15.35 14 13.7 14 12 14 C11.71125 13.360625 11.4225 12.72125 11.125 12.0625 C10.17176549 9.84793921 10.17176549 9.84793921 8 9 C8 8.34 8 7.68 8 7 C6.68 7 5.36 7 4 7 C3.566875 6.0409375 3.566875 6.0409375 3.125 5.0625 C2.17176549 2.84793921 2.17176549 2.84793921 0 2 C0 1.34 0 0.68 0 0 Z " fill="#F29D2C" transform="translate(144,273)"/>
<path d="M0 0 C0.33 0 0.66 0 1 0 C1.70735857 12.4116568 2.39541109 24.61304305 1 37 C0.67 37 0.34 37 0 37 C-0.96183123 31.35878348 -1.1551678 25.90429772 -1.125 20.1875 C-1.12306641 19.30545898 -1.12113281 18.42341797 -1.11914062 17.51464844 C-1.07992802 11.61750767 -0.78015651 5.85117383 0 0 Z " fill="#FCA827" transform="translate(152,173)"/>
<path d="M0 0 C6.6 0 13.2 0 20 0 C16.13209997 1.93395001 14.8499541 2.23289353 10.75 2.125 C9.85796875 2.10695313 8.9659375 2.08890625 8.046875 2.0703125 C7.03367187 2.03550781 7.03367187 2.03550781 6 2 C6.48210937 2.54269531 6.96421875 3.08539063 7.4609375 3.64453125 C8.09257812 4.35996094 8.72421875 5.07539062 9.375 5.8125 C10.00148438 6.52019531 10.62796875 7.22789062 11.2734375 7.95703125 C13 10 13 10 15 13 C11.37406397 11.47677573 9.09945753 9.30646461 6.375 6.5 C5.59898437 5.7059375 4.82296875 4.911875 4.0234375 4.09375 C3.35570312 3.4028125 2.68796875 2.711875 2 2 C1.34 1.34 0.68 0.68 0 0 Z " fill="#F8A227" transform="translate(259,508)"/>
<path d="M0 0 C0 3 0 3 -1.3125 4.38671875 C-2.875 5.59114583 -4.4375 6.79557292 -6 8 C-6.66 7.67 -7.32 7.34 -8 7 C-7.34 6.01 -6.68 5.02 -6 4 C-7.16015625 4.2165625 -7.16015625 4.2165625 -8.34375 4.4375 C-14.32823915 5.50404262 -19.92337435 6.23371637 -26 6 C-23.16835493 4.43988598 -20.7529405 3.64352794 -17.55859375 3.18359375 C-16.31239258 2.99700195 -16.31239258 2.99700195 -15.04101562 2.80664062 C-13.75227539 2.62391602 -13.75227539 2.62391602 -12.4375 2.4375 C-10.72753136 2.18847544 -9.0178794 1.93726396 -7.30859375 1.68359375 C-6.17635376 1.52201782 -6.17635376 1.52201782 -5.02124023 1.35717773 C-2.80553264 1.01646472 -2.80553264 1.01646472 0 0 Z " fill="#352A87" transform="translate(324,482)"/>
<path d="M0 0 C0.66 0.33 1.32 0.66 2 1 C1.39981362 5.20130463 0.36743501 8.98885731 -1 13 C-1 13.66 -1 14.32 -1 15 C-2.98 15.66 -4.96 16.32 -7 17 C-5.24009216 11.08030998 -2.60305395 5.58365008 0 0 Z " fill="#F1792D" transform="translate(457,374)"/>
<path d="M0 0 C12.87 0.495 12.87 0.495 26 1 C21 6 21 6 19 7 C19 6.01 19 5.02 19 4 C17.87980469 3.87882812 16.75960937 3.75765625 15.60546875 3.6328125 C14.13276364 3.46396733 12.66010996 3.29467303 11.1875 3.125 C10.44951172 3.04636719 9.71152344 2.96773438 8.95117188 2.88671875 C5.28493819 2.45539714 3.12048255 2.0803217 0 0 Z " fill="#F88822" transform="translate(741,507)"/>
<path d="M0 0 C1.98 0.66 3.96 1.32 6 2 C6.125 4.875 6.125 4.875 6 8 C3.60236815 10.39763185 2.66726502 10.34280586 -0.625 10.625 C-1.44226563 10.69976562 -2.25953125 10.77453125 -3.1015625 10.8515625 C-3.72804688 10.90054688 -4.35453125 10.94953125 -5 11 C-1.25 9 -1.25 9 1 9 C0.67 6.03 0.34 3.06 0 0 Z " fill="#57180D" transform="translate(487,231)"/>
<path d="M0 0 C3.67657053 2.31749638 5.04229523 4.60420901 6.75 8.5625 C7.17796875 9.53316406 7.6059375 10.50382813 8.046875 11.50390625 C9 14 9 14 9 16 C6.1248055 14.71111971 3.9928436 13.46733017 2 11 C1.25 8.9375 1.25 8.9375 1 7 C1.33 6.34 1.66 5.68 2 5 C1.01 4.67 0.02 4.34 -1 4 C-0.67 2.68 -0.34 1.36 0 0 Z " fill="#F7B43E" transform="translate(384,832)"/>
<path d="M0 0 C0 0.33 0 0.66 0 1 C-1.65 1.33 -3.3 1.66 -5 2 C-3.68 2.66 -2.36 3.32 -1 4 C-7.94485303 4.48452463 -14.2990368 2.69287491 -21 1 C-21 0.67 -21 0.34 -21 0 C-13.82242235 -1.01202288 -7.18808741 -0.88826175 0 0 Z " fill="#302B89" transform="translate(769,408)"/>
<path d="M0 0 C0.33 0.99 0.66 1.98 1 3 C1.66 3.33 2.32 3.66 3 4 C2.98839844 4.95519531 2.97679687 5.91039062 2.96484375 6.89453125 C2.91060839 14.66568301 3.09981434 22.26804814 4 30 C-1.61995805 21.57006292 -0.22013796 9.7472195 0 0 Z " fill="#F9A528" transform="translate(132,272)"/>
<path d="M0 0 C4.63893433 1.54631144 6.17524237 5.24766406 8.6875 9.25 C11.89147329 14.11648839 15.74985507 18.04110866 20 22 C19.67 22.66 19.34 23.32 19 24 C3.01030928 9.03092784 3.01030928 9.03092784 0 0 Z " fill="#F9A423" transform="translate(167,255)"/>
<path d="M0 0 C3.91939465 3.80411834 7.49102731 7.81576108 11 12 C8 12 8 12 5 10 C5 9.34 5 8.68 5 8 C1.52859548 8.76429774 1.52859548 8.76429774 0 13 C0 8.71 0 4.42 0 0 Z " fill="#F39F2C" transform="translate(131,258)"/>
<path d="M0 0 C2.2726013 2.10123014 3.75618512 4.09949785 5.19140625 6.8359375 C5.57876953 7.57070312 5.96613281 8.30546875 6.36523438 9.0625 C6.95788086 10.2071875 6.95788086 10.2071875 7.5625 11.375 C8.16094727 12.50808594 8.16094727 12.50808594 8.77148438 13.6640625 C10.71708645 17.37987013 12.54693109 21.05707789 14 25 C10.33928998 21.88161739 8.41084185 18.32993187 6.24609375 14.12109375 C5.02677029 12.04556823 3.71884527 10.66074346 2 9 C1.375 7.125 1.375 7.125 1 5 C0.814375 4.0925 0.62875 3.185 0.4375 2.25 C0.293125 1.5075 0.14875 0.765 0 0 Z " fill="#F89E27" transform="translate(186,149)"/>
<path d="M0 0 C0.33 0.66 0.66 1.32 1 2 C-0.14453125 4.609375 -0.14453125 4.609375 -1.8125 7.75 C-3.94634199 11.7845326 -5.56790627 15.6727211 -7 20 C-8.625 21.875 -8.625 21.875 -10 23 C-10.66 22.67 -11.32 22.34 -12 22 C-8.04 14.74 -4.08 7.48 0 0 Z " fill="#322887" transform="translate(532,804)"/>
<path d="M0 0 C2.70329311 3.29590691 4.41900085 6.75613519 6.1875 10.625 C6.71730469 11.77226563 7.24710938 12.91953125 7.79296875 14.1015625 C9 17 9 17 9 19 C9.99 19.33 10.98 19.66 12 20 C12 22.31 12 24.62 12 27 C8.56234911 22.67652856 6.54847378 17.95506795 4.3125 12.9375 C3.68891602 11.57141602 3.68891602 11.57141602 3.05273438 10.17773438 C2.46395508 8.86579102 2.46395508 8.86579102 1.86328125 7.52734375 C1.50532471 6.73062256 1.14736816 5.93390137 0.77856445 5.11303711 C0 3 0 3 0 0 Z " fill="#2D2B8B" transform="translate(553,582)"/>
<path d="M0 0 C0 0.99 0 1.98 0 3 C-8.25 2.34 -16.5 1.68 -25 1 C-25 0.67 -25 0.34 -25 0 C-3.73333333 -1.86666667 -3.73333333 -1.86666667 0 0 Z " fill="#E2983F" transform="translate(424,233)"/>
<path d="M0 0 C1 3 1 3 -0.36328125 5.8828125 C-1.00652344 6.95273437 -1.64976562 8.02265625 -2.3125 9.125 C-2.94800781 10.20007813 -3.58351563 11.27515625 -4.23828125 12.3828125 C-6 15 -6 15 -8 16 C-8.33 14.35 -8.66 12.7 -9 11 C-7.02 9.35 -5.04 7.7 -3 6 C-3.33 4.68 -3.66 3.36 -4 2 C-2.68 2 -1.36 2 0 2 C0 1.34 0 0.68 0 0 Z " fill="#F5952A" transform="translate(567,775)"/>
<path d="M0 0 C4.47573529 1.49191176 5.33757482 4.83252824 7.5 8.84765625 C7.995 9.55792969 8.49 10.26820313 9 11 C9.99 11 10.98 11 12 11 C12.12375 11.7425 12.2475 12.485 12.375 13.25 C12.95486701 15.80141485 13.73708739 17.7267573 15 20 C10.86385033 17.01522533 8.05711252 13.63871722 5.25 9.4375 C4.85167969 8.86064453 4.45335937 8.28378906 4.04296875 7.68945312 C2.30977744 5.14254318 0.97924275 2.93772824 0 0 Z " fill="#F7A427" transform="translate(180,428)"/>
<path d="M0 0 C0.33 0.99 0.66 1.98 1 3 C0.01 4.485 0.01 4.485 -1 6 C0.98 6.66 2.96 7.32 5 8 C5 8.33 5 8.66 5 9 C1.04 9 -2.92 9 -7 9 C-4.71489655 5.19149425 -3.12404415 2.90859283 0 0 Z " fill="#FAAE33" transform="translate(407,224)"/>
<path d="M0 0 C3.77724848 1.25908283 4.13744499 2.47784411 6.0625 5.875 C7.65045835 8.64685605 9.22674848 11.34012273 11 14 C10.34 14.66 9.68 15.32 9 16 C8.34 15.34 7.68 14.68 7 14 C6.34 13.67 5.68 13.34 5 13 C4.896875 12.2575 4.79375 11.515 4.6875 10.75 C3.76597379 7.06389516 1.74600328 5.54005304 -1 3 C-1.33 2.34 -1.66 1.68 -2 1 C-1.34 0.67 -0.68 0.34 0 0 Z " fill="#F16B2B" transform="translate(563,402)"/>
<path d="M0 0 C5.19228855 0.57229633 9.3103703 3.0982161 13.8125 5.5625 C14.60076172 5.98724609 15.38902344 6.41199219 16.20117188 6.84960938 C18.1373378 7.89396554 20.07005367 8.9442077 22 10 C21.67 10.66 21.34 11.32 21 12 C19.68 11.67 18.36 11.34 17 11 C17 10.34 17 9.68 17 9 C13.00999834 7.57499941 9.19469571 6.59924224 5 6 C4.87625 5.071875 4.87625 5.071875 4.75 4.125 C4.18741541 1.81562433 4.18741541 1.81562433 1.9375 0.75 C1.298125 0.5025 0.65875 0.255 0 0 Z " fill="#F99E27" transform="translate(175,297)"/>
<path d="M0 0 C2.39611639 0.31044024 4.79187835 0.62328358 7.1875 0.9375 C8.19780273 1.06801758 8.19780273 1.06801758 9.22851562 1.20117188 C12.85081166 1.67825477 16.42803585 2.23012035 20 3 C18.68 3.33 17.36 3.66 16 4 C16 4.66 16 5.32 16 6 C14.02 6 12.04 6 10 6 C10 5.34 10 4.68 10 4 C6.7 3.01 3.4 2.02 0 1 C0 0.67 0 0.34 0 0 Z " fill="#FBA029" transform="translate(185,410)"/>
<path d="M0 0 C1.85625 -0.061875 1.85625 -0.061875 3.75 -0.125 C4.79414063 -0.15980469 4.79414063 -0.15980469 5.859375 -0.1953125 C8.33509561 0.03057442 9.78503299 0.8925165 12 2 C14.07169246 2.43473339 16.15727751 2.80654223 18.25 3.125 C19.32765625 3.29257812 20.4053125 3.46015625 21.515625 3.6328125 C22.74539063 3.81457031 22.74539063 3.81457031 24 4 C24 4.33 24 4.66 24 5 C16.01667472 5.4243106 8.56493186 4.75778453 1 2 C0.67 1.34 0.34 0.68 0 0 Z " fill="#F19627" transform="translate(320,546)"/>
<path d="M0 0 C2 0 2 0 3.7265625 1.64453125 C4.35304688 2.35996094 4.97953125 3.07539062 5.625 3.8125 C6.25664062 4.52019531 6.88828125 5.22789062 7.5390625 5.95703125 C9 8 9 8 9 11 C7.68 10.01 6.36 9.02 5 8 C4.67 9.32 4.34 10.64 4 12 C2.09681116 9.14521674 1.5380901 7.58058692 0.875 4.3125 C0.70742188 3.50425781 0.53984375 2.69601562 0.3671875 1.86328125 C0.24601562 1.24839844 0.12484375 0.63351562 0 0 Z " fill="#E7B337" transform="translate(474,627)"/>
<path d="M0 0 C0.66 0.33 1.32 0.66 2 1 C2 1.66 2 2.32 2 3 C1.34 3 0.68 3 0 3 C-0.33 3.99 -0.66 4.98 -1 6 C-1.969375 6.12375 -2.93875 6.2475 -3.9375 6.375 C-5.4534375 6.684375 -5.4534375 6.684375 -7 7 C-7.33 7.66 -7.66 8.32 -8 9 C-8.66 9 -9.32 9 -10 9 C-10 8.01 -10 7.02 -10 6 C-7.8828125 4.359375 -7.8828125 4.359375 -5.125 2.75 C-3.76761719 1.93789063 -3.76761719 1.93789063 -2.3828125 1.109375 C-1.20332031 0.56023437 -1.20332031 0.56023437 0 0 Z " fill="#F06A2D" transform="translate(685,285)"/>
<path d="M0 0 C0.66 0.33 1.32 0.66 2 1 C1.1875 3.4375 1.1875 3.4375 0 6 C-0.99 6.33 -1.98 6.66 -3 7 C-3.72045764 8.9812585 -4.38001259 10.98504093 -5 13 C-5.9563874 14.69207001 -6.94410931 16.36816893 -8 18 C-9 15 -9 15 -8.28735352 13.2824707 C-7.90506592 12.66976318 -7.52277832 12.05705566 -7.12890625 11.42578125 C-6.71962891 10.75869141 -6.31035156 10.09160156 -5.88867188 9.40429688 C-5.45103516 8.71400391 -5.01339844 8.02371094 -4.5625 7.3125 C-4.12873047 6.61060547 -3.69496094 5.90871094 -3.24804688 5.18554688 C-2.17449413 3.45134628 -1.08841346 1.72491256 0 0 Z " fill="#F8C733" transform="translate(362,711)"/>
<path d="M0 0 C1.32 1.65 2.64 3.3 4 5 C4.66 4.34 5.32 3.68 6 3 C7.4216319 6.3171411 8.39009109 9.44219804 9 13 C8.01 13.495 8.01 13.495 7 14 C5.82508418 12.23462904 4.66031316 10.46250287 3.5 8.6875 C2.8503125 7.70136719 2.200625 6.71523438 1.53125 5.69921875 C0 3 0 3 0 0 Z " fill="#EE7C2A" transform="translate(574,592)"/>
<path d="M0 0 C-1.8125 2 -1.8125 2 -4 4 C-4.99 4 -5.98 4 -7 4 C-7.33 4.66 -7.66 5.32 -8 6 C-8.12375 5.360625 -8.2475 4.72125 -8.375 4.0625 C-8.684375 3.0415625 -8.684375 3.0415625 -9 2 C-9.66 1.67 -10.32 1.34 -11 1 C-3.57142857 -1.42857143 -3.57142857 -1.42857143 0 0 Z " fill="#F9962C" transform="translate(291,506)"/>
<path d="M0 0 C3.9252025 3.70090521 6.94580156 7.54959656 10 12 C9.01 12.495 9.01 12.495 8 13 C7.61328125 12.51789062 7.2265625 12.03578125 6.828125 11.5390625 C6.30734375 10.90742187 5.7865625 10.27578125 5.25 9.625 C4.73953125 8.99851562 4.2290625 8.37203125 3.703125 7.7265625 C1.91800519 5.91687682 0.32050356 4.99882545 -2 4 C-2 3.01 -2 2.02 -2 1 C-1.34 0.67 -0.68 0.34 0 0 Z " fill="#362B87" transform="translate(411,544)"/>
<path d="M0 0 C0 0.66 0 1.32 0 2 C0.99 2.33 1.98 2.66 3 3 C2.67 3.99 2.34 4.98 2 6 C-0.64 5.67 -3.28 5.34 -6 5 C-6 3.68 -6 2.36 -6 1 C-3.92446352 0.4465236 -2.15634036 0 0 0 Z " fill="#EE752F" transform="translate(640,544)"/>
<path d="M0 0 C0.99 0 1.98 0 3 0 C3 0.66 3 1.32 3 2 C3.99 1.67 4.98 1.34 6 1 C6.33 2.32 6.66 3.64 7 5 C2.545 5.495 2.545 5.495 -2 6 C-1.34 4.02 -0.68 2.04 0 0 Z " fill="#EE792D" transform="translate(765,401)"/>
<path d="M0 0 C4.97561882 4.14634902 7.12934141 8.83414209 9 15 C9 15.99 9 16.98 9 18 C0 4.13114754 0 4.13114754 0 0 Z " fill="#302A89" transform="translate(429,500)"/>
<path d="M0 0 C0.33 0 0.66 0 1 0 C1 1.65 1 3.3 1 5 C7.435 4.505 7.435 4.505 14 4 C13.01 5.485 13.01 5.485 12 7 C8.375 7.6875 8.375 7.6875 5 8 C5 7.67 5 7.34 5 7 C3.35 6.67 1.7 6.34 0 6 C0 4.02 0 2.04 0 0 Z " fill="#DB7D37" transform="translate(479,237)"/>
<path d="M0 0 C0.66 0.33 1.32 0.66 2 1 C0.73548068 2.31858428 -0.53685475 3.62967631 -1.8125 4.9375 C-2.52019531 5.66839844 -3.22789062 6.39929688 -3.95703125 7.15234375 C-6 9 -6 9 -9 10 C-9 9.01 -9 8.02 -9 7 C-8.01 7 -7.02 7 -6 7 C-6.66 6.67 -7.32 6.34 -8 6 C-7.34 4.68 -6.68 3.36 -6 2 C-5.01 2.33 -4.02 2.66 -3 3 C-2.01 2.01 -1.02 1.02 0 0 Z " fill="#392E86" transform="translate(793,206)"/>
<path d="M0 0 C1 3 1 3 -0.65234375 6.57421875 C-1.40387723 7.95092168 -2.1660567 9.32185409 -2.9375 10.6875 C-3.51661133 11.7403418 -3.51661133 11.7403418 -4.10742188 12.81445312 C-5.06261773 14.54795672 -6.03015386 16.27465009 -7 18 C-7.33 17.34 -7.66 16.68 -8 16 C-7.0390625 13.79296875 -7.0390625 13.79296875 -5.625 11.1875 C-4.15048579 8.4650031 -3.0558045 6.28589695 -2.4609375 3.23828125 C-2.30882812 2.49964844 -2.15671875 1.76101563 -2 1 C-1.34 0.67 -0.68 0.34 0 0 Z " fill="#F09628" transform="translate(577,756)"/>
<path d="M0 0 C0.66 0 1.32 0 2 0 C5 5.625 5 5.625 5 9 C3.5625 10.6875 3.5625 10.6875 2 12 C1.67 12 1.34 12 1 12 C0.67 8.04 0.34 4.08 0 0 Z " fill="#E8AB3C" transform="translate(627,672)"/>
<path d="M0 0 C3.37719288 0.62653805 5.58116593 1.90461176 8.375 3.875 C11.82643816 6.24822029 15.20099611 8.24661359 19 10 C16 11 16 11 13.4765625 9.9609375 C8.31435906 7.0899038 3.85143873 4.51547989 0 0 Z " fill="#F57B21" transform="translate(602,532)"/>
<path d="M0 0 C2.475 0.495 2.475 0.495 5 1 C4.67 1.99 4.34 2.98 4 4 C6.475 5.98 6.475 5.98 9 8 C8.67 8.99 8.34 9.98 8 11 C7.34 10.67 6.68 10.34 6 10 C6 9.34 6 8.68 6 8 C5.38125 7.79375 4.7625 7.5875 4.125 7.375 C1.15346355 5.45224112 0.86975341 3.33405473 0 0 Z " fill="#ED9531" transform="translate(167,360)"/>
<path d="M0 0 C1.50390625 1.38671875 1.50390625 1.38671875 3 3 C2.86443822 6.93129167 0.19277917 9.88766828 -2 13 C-3.45047396 10.09905209 -2.45356803 8.44027404 -1.5625 5.375 C-1.27503906 4.37210938 -0.98757813 3.36921875 -0.69140625 2.3359375 C-0.46324219 1.56507813 -0.23507812 0.79421875 0 0 Z " fill="#ED942E" transform="translate(555,789)"/>
<path d="M0 0 C3.1857029 1.39330742 5.19822217 3.02896738 7.5625 5.5625 C9.8343494 7.99626295 10.76779382 8.92259794 14 10 C13.67 11.32 13.34 12.64 13 14 C10.83031809 11.85714108 8.66416525 9.71091768 6.5 7.5625 C5.87996094 6.95083984 5.25992187 6.33917969 4.62109375 5.70898438 C4.03457031 5.12568359 3.44804687 4.54238281 2.84375 3.94140625 C2.02680664 3.13231812 2.02680664 3.13231812 1.19335938 2.30688477 C0 1 0 1 0 0 Z " fill="#FC9422" transform="translate(471,603)"/>
<path d="M0 0 C1.27230469 0.00902344 2.54460937 0.01804688 3.85546875 0.02734375 C5.31919922 0.04474609 5.31919922 0.04474609 6.8125 0.0625 C6.8125 0.3925 6.8125 0.7225 6.8125 1.0625 C5.89017578 1.13597656 5.89017578 1.13597656 4.94921875 1.2109375 C4.14097656 1.28570312 3.33273437 1.36046875 2.5 1.4375 C1.29923828 1.54191406 1.29923828 1.54191406 0.07421875 1.6484375 C-2.45974441 1.95814426 -2.45974441 1.95814426 -5.1875 4.0625 C-7.875 3.6875 -7.875 3.6875 -10.1875 3.0625 C-10.1875 2.4025 -10.1875 1.7425 -10.1875 1.0625 C-6.62704823 -0.12431726 -3.74941663 -0.03439832 0 0 Z " fill="#FBB135" transform="translate(442.1875,209.9375)"/>
<path d="M0 0 C0.66 0.33 1.32 0.66 2 1 C0.35 1.66 -1.3 2.32 -3 3 C-3 3.66 -3 4.32 -3 5 C-6.02525676 7.40240978 -7.4125871 8.05541631 -11.3125 7.6875 C-12.199375 7.460625 -13.08625 7.23375 -14 7 C-14 6.67 -14 6.34 -14 6 C-13.175 5.7525 -12.35 5.505 -11.5 5.25 C-8.02812562 4.01004486 -4.95762516 2.47482155 -1.734375 0.70703125 C-1.16203125 0.47371094 -0.5896875 0.24039063 0 0 Z " fill="#F6AA36" transform="translate(464,205)"/>
<path d="M0 0 C0.33 0.66 0.66 1.32 1 2 C-0.65 2.66 -2.3 3.32 -4 4 C-4 4.66 -4 5.32 -4 6 C-5.98 6 -7.96 6 -10 6 C-10 6.66 -10 7.32 -10 8 C-10.99 7.67 -11.98 7.34 -13 7 C-11.47308398 3.94616796 -9.04783744 3.61913497 -5.9375 2.375 C-4.83277344 1.92898438 -3.72804688 1.48296875 -2.58984375 1.0234375 C-1.30787109 0.51683594 -1.30787109 0.51683594 0 0 Z " fill="#F4972A" transform="translate(305,498)"/>
<path d="M0 0 C0.99 0.33 1.98 0.66 3 1 C2.67 1.99 2.34 2.98 2 4 C2.66 4.66 3.32 5.32 4 6 C-0.19469571 5.40075776 -4.00999834 4.42500059 -8 3 C-8 2.67 -8 2.34 -8 2 C-7.05125 2.04125 -6.1025 2.0825 -5.125 2.125 C-1.89755144 2.34973818 -1.89755144 2.34973818 0 0 Z " fill="#F3982E" transform="translate(223,392)"/>
<path d="M0 0 C2.31 0 4.62 0 7 0 C6.67 0.99 6.34 1.98 6 3 C6.33 3.99 6.66 4.98 7 6 C3.75728494 5.4409112 2.06942576 4.5867822 0 2 C0 1.34 0 0.68 0 0 Z " fill="#FA9035" transform="translate(265,510)"/>
<path d="M0 0 C0.61875 0.33 1.2375 0.66 1.875 1 C3.91018344 2.14193235 3.91018344 2.14193235 6 2 C6.204437 5.67986596 5.74565111 7.78360346 4 11 C3.32591692 9.73308493 2.66099503 8.46129251 2 7.1875 C1.62875 6.47980469 1.2575 5.77210938 0.875 5.04296875 C0 3 0 3 0 0 Z " fill="#382C84" transform="translate(410,666)"/>
<path d="M0 0 C1.4391134 0.28359887 2.87625518 0.57721399 4.3125 0.875 C5.11300781 1.03742187 5.91351563 1.19984375 6.73828125 1.3671875 C9 2 9 2 12 4 C10.01432292 3.96744792 8.02864583 3.93489583 6.04296875 3.90234375 C3.79694539 3.91736783 3.79694539 3.91736783 1 5 C0.67 3.35 0.34 1.7 0 0 Z " fill="#332C87" transform="translate(312,545)"/>
<path d="M0 0 C2.36253009 2.36253009 3.037848 4.31227271 4.1875 7.4375 C4.55230469 8.40558594 4.91710937 9.37367188 5.29296875 10.37109375 C6 13 6 13 5 16 C4.896875 15.360625 4.79375 14.72125 4.6875 14.0625 C4.460625 13.381875 4.23375 12.70125 4 12 C3.01 11.67 2.02 11.34 1 11 C0.67 7.37 0.34 3.74 0 0 Z " fill="#F59E27" transform="translate(179,130)"/>
<path d="M0 0 C0.33 0 0.66 0 1 0 C1.10957031 0.68707031 1.21914063 1.37414062 1.33203125 2.08203125 C1.49058594 2.98308594 1.64914062 3.88414062 1.8125 4.8125 C1.96332031 5.70582031 2.11414063 6.59914063 2.26953125 7.51953125 C3.05395393 10.18321256 3.88627799 11.25690322 6 13 C5.34 13.66 4.68 14.32 4 15 C4 14.34 4 13.68 4 13 C3.01 13 2.02 13 1 13 C-0.10228696 8.59085217 -0.07654536 4.51617599 0 0 Z " fill="#322786" transform="translate(674,741)"/>
<path d="M0 0 C1.32 0.66 2.64 1.32 4 2 C3.01 2.495 3.01 2.495 2 3 C2.66 4.11375 3.32 5.2275 4 6.375 C6 9.75 6 9.75 6 12 C5.34 12 4.68 12 4 12 C3.54625 10.865625 3.0925 9.73125 2.625 8.5625 C1.42904194 4.95278308 1.42904194 4.95278308 -1 4 C-0.67 2.68 -0.34 1.36 0 0 Z " fill="#362886" transform="translate(371,637)"/>
<path d="M0 0 C4.83628305 0.99043705 9.47618873 1.95698846 14 4 C14 4.33 14 4.66 14 5 C6.63598326 5.36820084 6.63598326 5.36820084 3.625 3.625 C2.41666667 2.41666667 1.20833333 1.20833333 0 0 Z " fill="#F6992A" transform="translate(215,315)"/>
<path d="M0 0 C0.33 0.66 0.66 1.32 1 2 C0.22265625 3.9453125 0.22265625 3.9453125 -0.9375 6.125 C-1.31777344 6.84945312 -1.69804688 7.57390625 -2.08984375 8.3203125 C-2.54037109 9.15175781 -2.54037109 9.15175781 -3 10 C-3.33 9.34 -3.66 8.68 -4 8 C-3.67 7.34 -3.34 6.68 -3 6 C-4.32 6.33 -5.64 6.66 -7 7 C-4.66666667 4.66666667 -2.33333333 2.33333333 0 0 Z " fill="#F18533" transform="translate(616,210)"/>
<path d="M0 0 C2.97246802 2.54782974 4.41535288 5.45340883 6 9 C6 9.66 6 10.32 6 11 C4.125 10.375 4.125 10.375 2 9 C0.64169543 5.80798426 0 3.47289374 0 0 Z " fill="#F4C936" transform="translate(387,837)"/>
<path d="M0 0 C2.475 0.495 2.475 0.495 5 1 C4.625 2.9375 4.625 2.9375 4 5 C3.01 5.495 3.01 5.495 2 6 C1.34 5.67 0.68 5.34 0 5 C0 3.35 0 1.7 0 0 Z " fill="#EE813F" transform="translate(565,226)"/>
<path d="M0 0 C4.56454251 0.54339792 7.9728176 1.79463821 12 4 C11.67 4.66 11.34 5.32 11 6 C8.03 5.01 5.06 4.02 2 3 C2 2.34 2 1.68 2 1 C1.34 0.67 0.68 0.34 0 0 Z " fill="#F89E39" transform="translate(509,206)"/>
<path d="M0 0 C0.33 0 0.66 0 1 0 C0.88601335 1.62580966 0.75844341 3.25067157 0.625 4.875 C0.52058594 6.23238281 0.52058594 6.23238281 0.4140625 7.6171875 C0 10 0 10 -2 12 C-2.33 9.69 -2.66 7.38 -3 5 C-2.34 5 -1.68 5 -1 5 C-0.67 3.35 -0.34 1.7 0 0 Z " fill="#ED8D29" transform="translate(588,721)"/>
<path d="M0 0 C0 0.66 0 1.32 0 2 C-3.37097383 3.49821059 -5.20442119 4 -9 4 C-8.67 3.01 -8.34 2.02 -8 1 C-5.29120665 -0.35439668 -2.99066732 -0.06501451 0 0 Z " fill="#F2712F" transform="translate(732,260)"/>
<path d="M0 0 C1.98 0.66 3.96 1.32 6 2 C5.01 2.495 5.01 2.495 4 3 C4.495 3.94875 4.99 4.8975 5.5 5.875 C7 9 7 9 7 11 C6.34 11 5.68 11 5 11 C3.35 7.37 1.7 3.74 0 0 Z " fill="#F9CB2D" transform="translate(372,639)"/>
<path d="M0 0 C-1.4096347 0.70180531 -2.82807641 1.38593958 -4.25 2.0625 C-5.03890625 2.44535156 -5.8278125 2.82820313 -6.640625 3.22265625 C-9.25993522 4.08564091 -10.44855176 3.93045933 -13 3 C-12.01 3 -11.02 3 -10 3 C-10 2.01 -10 1.02 -10 0 C-3.375 -1.125 -3.375 -1.125 0 0 Z " fill="#F98621" transform="translate(808,395)"/>
<path d="M0 0 C2.40034102 3.60051153 4.32187705 6.96144535 3.625 11.375 C3.41875 11.91125 3.2125 12.4475 3 13 C3 12.34 3 11.68 3 11 C2.34 11 1.68 11 1 11 C0.67 7.37 0.34 3.74 0 0 Z " fill="#2C228A" transform="translate(342,783)"/>
<path d="M0 0 C0.99 0 1.98 0 3 0 C2.39009109 3.55780196 1.4216319 6.6828589 0 10 C-1.07193479 6.78419562 -1.14636054 4.36629251 -1 1 C-0.67 0.67 -0.34 0.34 0 0 Z " fill="#322887" transform="translate(371,687)"/>
<path d="M0 0 C0.33 0.66 0.66 1.32 1 2 C1.66 2 2.32 2 3 2 C4.38938077 3.96147874 5.7260411 5.96166576 7 8 C6.401875 7.67 5.80375 7.34 5.1875 7 C2.94613529 5.79212012 2.94613529 5.79212012 0 6 C-1.125 2.25 -1.125 2.25 0 0 Z " fill="#292A8C" transform="translate(592,523)"/>
<path d="M0 0 C1.65 0.33 3.3 0.66 5 1 C3.68 2.65 2.36 4.3 1 6 C0.34 5.67 -0.32 5.34 -1 5 C-0.67 3.35 -0.34 1.7 0 0 Z " fill="#FA8326" transform="translate(754,514)"/>
<path d="M0 0 C0.66 0.33 1.32 0.66 2 1 C0.90554162 1.86657116 -0.20097781 2.71792724 -1.3125 3.5625 C-1.92738281 4.03816406 -2.54226563 4.51382812 -3.17578125 5.00390625 C-3.77777344 5.33261719 -4.37976563 5.66132813 -5 6 C-5.99 5.67 -6.98 5.34 -8 5 C-6 2 -6 2 -3.4375 1.375 C-2.2309375 1.189375 -2.2309375 1.189375 -1 1 C-0.67 0.67 -0.34 0.34 0 0 Z " fill="#F28625" transform="translate(840,376)"/>
<path d="M0 0 C4.07061787 1.35687262 5.23056191 3.5421173 7.1875 7.25 C7.455625 7.8275 7.72375 8.405 8 9 C7.01 9 6.02 9 5 9 C3.35 6.03 1.7 3.06 0 0 Z " fill="#E99930" transform="translate(167,255)"/>
<path d="M0 0 C3.3 0.33 6.6 0.66 10 1 C10 1.99 10 2.98 10 4 C5.38308839 3.47535095 3.90012114 2.92509086 0 0 Z " fill="#FAA045" transform="translate(481,224)"/>
<path d="M0 0 C2.02045442 0.60183749 4.02111039 1.27306096 6 2 C6.33 2.66 6.66 3.32 7 4 C6.01 4.495 6.01 4.495 5 5 C4.67 5.66 4.34 6.32 4 7 C0 2.25 0 2.25 0 0 Z " fill="#F79026" transform="translate(518,656)"/>
<path d="M0 0 C6.57142857 5.14285714 6.57142857 5.14285714 8 9 C6.25 8.875 6.25 8.875 4 8 C0 2.77777778 0 2.77777778 0 0 Z " fill="#2C288A" transform="translate(535,549)"/>
<path d="M0 0 C4.455 1.98 4.455 1.98 9 4 C8.67 4.99 8.34 5.98 8 7 C7.34 7 6.68 7 6 7 C5.34 6.34 4.68 5.68 4 5 C3.34 5 2.68 5 2 5 C1.34 3.35 0.68 1.7 0 0 Z " fill="#EB6B2C" transform="translate(576,419)"/>
<path d="M0 0 C0.99 0.33 1.98 0.66 3 1 C3.33 2.98 3.66 4.96 4 7 C3.01 7 2.02 7 1 7 C0.67 4.69 0.34 2.38 0 0 Z " fill="#3C3282" transform="translate(545,563)"/>
<path d="M0 0 C3.48872415 1.16290805 4.09976864 2.13967609 6.1875 5.0625 C6.71730469 5.79597656 7.24710938 6.52945312 7.79296875 7.28515625 C8.19128906 7.85105469 8.58960938 8.41695313 9 9 C5.23309364 7.26142784 2.78767463 5.09741625 0 2 C0 1.34 0 0.68 0 0 Z " fill="#F0A325" transform="translate(196,449)"/>
<path d="M0 0 C2.91517292 1.07401108 4.77810176 1.77810176 7 4 C7 4.99 7 5.98 7 7 C6.34 7 5.68 7 5 7 C4.67 6.34 4.34 5.68 4 5 C3.01 5 2.02 5 1 5 C0.67 3.35 0.34 1.7 0 0 Z " fill="#F69534" transform="translate(194,445)"/>
<path d="M0 0 C0.598125 0.33 1.19625 0.66 1.8125 1 C4.05386471 2.20787988 4.05386471 2.20787988 7 2 C7.33 3.98 7.66 5.96 8 8 C6.85073734 7.04578192 5.70569459 6.08647955 4.5625 5.125 C3.92441406 4.59132813 3.28632813 4.05765625 2.62890625 3.5078125 C1 2 1 2 0 0 Z " fill="#F59D28" transform="translate(187,279)"/>
<path d="M0 0 C0.33 0.66 0.66 1.32 1 2 C-0.13304992 5.39914975 -1.12518475 6.05254451 -4 8 C-4.66 7.67 -5.32 7.34 -6 7 C-4.02 4.69 -2.04 2.38 0 0 Z " fill="#332C88" transform="translate(832,444)"/>
<path d="M0 0 C3.64553172 1.2808625 5.16671013 2.16671013 8 5 C4.7 4.01 1.4 3.02 -2 2 C-1.34 1.34 -0.68 0.68 0 0 Z " fill="#382B85" transform="translate(237,319)"/>
<path d="M0 0 C4.31392226 0.4793247 6.16569547 1.7457985 9 5 C2.25 3.125 2.25 3.125 0 2 C0 1.34 0 0.68 0 0 Z " fill="#F78F26" transform="translate(315,273)"/>
<path d="M0 0 C1.62580966 0.11398665 3.25067157 0.24155659 4.875 0.375 C5.77992188 0.44460937 6.68484375 0.51421875 7.6171875 0.5859375 C10 1 10 1 12 3 C10.68 3.33 9.36 3.66 8 4 C8 3.34 8 2.68 8 2 C5.36 1.67 2.72 1.34 0 1 C0 0.67 0 0.34 0 0 Z " fill="#26228A" transform="translate(415,235)"/>
<path d="M0 0 C0.33 1.32 0.66 2.64 1 4 C-0.32 4.99 -1.64 5.98 -3 7 C-3.66 6.34 -4.32 5.68 -5 5 C-3.35 3.35 -1.7 1.7 0 0 Z " fill="#2E2C8B" transform="translate(825,452)"/>
<path d="M0 0 C2.64 0.99 5.28 1.98 8 3 C7.34 3.66 6.68 4.32 6 5 C4.02 4.34 2.04 3.68 0 3 C0 2.01 0 1.02 0 0 Z " fill="#EC932F" transform="translate(197,307)"/>
<path d="M0 0 C0.33 0 0.66 0 1 0 C0.67 2.97 0.34 5.94 0 9 C-0.99 8.67 -1.98 8.34 -3 8 C-2.690625 7.236875 -2.38125 6.47375 -2.0625 5.6875 C-1.32106407 3.81210323 -0.63771783 1.91315348 0 0 Z " fill="#E46E3A" transform="translate(556,278)"/>
<path d="M0 0 C0 0.33 0 0.66 0 1 C-2.64 1 -5.28 1 -8 1 C-8.33 0.34 -8.66 -0.32 -9 -1 C-5.79937313 -2.60031344 -3.27728194 -1.03173691 0 0 Z " fill="#EA8944" transform="translate(545,220)"/>
<path d="M0 0 C2 1.8125 2 1.8125 4 4 C4 4.99 4 5.98 4 7 C3.01 7.33 2.02 7.66 1 8 C0.67 5.36 0.34 2.72 0 0 Z " fill="#F29231" transform="translate(215,192)"/>
</svg>
